<svg xmlns="http://www.w3.org/2000/svg" viewBox="0 0 512 512" width="512" height="512">
  <!-- Placeholder app icon: a page with a magnifier, standing for "read and
       search a PDF". Replace with real artwork before shipping to anyone. -->
  <rect width="512" height="512" rx="96" fill="#2563eb"/>
  <path d="M160 96h128l64 64v160a32 32 0 0 1-32 32H160a32 32 0 0 1-32-32V128a32 32 0 0 1 32-32z" fill="#ffffff"/>
  <path d="M288 96l64 64h-52a12 12 0 0 1-12-12V96z" fill="#bfdbfe"/>
  <rect x="164" y="188" width="120" height="16" rx="8" fill="#93c5fd"/>
  <rect x="164" y="228" width="152" height="16" rx="8" fill="#93c5fd"/>
  <rect x="164" y="268" width="96" height="16" rx="8" fill="#93c5fd"/>
  <circle cx="330" cy="330" r="62" fill="none" stroke="#0f172a" stroke-width="26"/>
  <path d="M374 374l52 52" stroke="#0f172a" stroke-width="34" stroke-linecap="round"/>
</svg>
